<svg width="28" height="29" viewBox="0 0 28 29" fill="none" xmlns="http://www.w3.org/2000/svg">
<g clip-path="url(#clip0_33_138)">
<path d="M0.354492 14.6571C0.354492 22.1934 6.46365 28.3026 13.9998 28.3026C21.5361 28.3026 27.6456 22.1932 27.6456 14.6571C27.6456 7.12095 21.5361 1.01178 13.9998 1.01178C6.46365 1.01178 0.354492 7.12094 0.354492 14.6571Z" fill="#070707" stroke="#F9FAF9" stroke-width="0.708861"/>
<path fill-rule="evenodd" clip-rule="evenodd" d="M7.82495 11.359L8.17054 10.2913C8.24079 10.0741 8.41217 9.90513 8.63013 9.8385L9.70304 9.50856C9.85155 9.46319 9.85275 9.25367 9.70545 9.20591L8.63736 8.86031C8.42061 8.79008 8.25161 8.61868 8.18459 8.40072L7.85504 7.32782C7.80969 7.17971 7.60017 7.17809 7.55239 7.3258L7.20681 8.39351C7.13656 8.61024 6.96517 8.77923 6.74722 8.84627L5.6743 9.1758C5.5258 9.22156 5.52418 9.43069 5.67189 9.47845L6.73999 9.82404C6.95674 9.89429 7.12573 10.0661 7.19275 10.284L7.5223 11.3565C7.56765 11.5051 7.77717 11.5067 7.82495 11.359Z" fill="#B7B7B6"/>
<path fill-rule="evenodd" clip-rule="evenodd" d="M24.7829 10.7375C24.3406 10.2429 23.6503 9.96444 22.9792 9.85024C22.3028 9.74056 21.5934 9.75073 20.9257 9.86938C19.5744 10.098 18.3468 10.6575 17.2761 11.3477C16.7201 11.6864 16.2459 12.0784 15.7547 12.4776C15.518 12.6795 15.3022 12.8945 15.0775 13.1064L14.4634 13.7174C13.7961 14.4149 13.1384 15.0501 12.5021 15.5767C11.8632 16.1008 11.2658 16.4989 10.6772 16.7769C10.0889 17.0563 9.45937 17.2207 8.63888 17.247C7.82561 17.2757 6.8634 17.1289 5.83417 16.8866C4.79941 16.6454 3.7128 16.3016 2.49854 16.0057C2.92222 17.1811 3.56023 18.2198 4.37937 19.1694C5.20812 20.1025 6.24297 20.9527 7.57238 21.512C8.88259 22.0837 10.5291 22.2889 12.0686 21.9793C13.6122 21.6822 14.9668 20.968 16.0618 20.1418C17.1595 19.3073 18.0477 18.3567 18.7964 17.3684C19.003 17.0953 19.1124 16.9425 19.262 16.7291L19.6754 16.1167C19.9627 15.7379 20.2242 15.3067 20.5085 14.9314C21.066 14.1454 21.6157 13.3603 22.2544 12.637C22.5759 12.2702 22.9149 11.9193 23.315 11.5821C23.5146 11.4175 23.7303 11.2564 23.9691 11.1113C24.2116 10.9548 24.4677 10.8322 24.7829 10.7375Z" fill="#F9FAF9"/>
<path fill-rule="evenodd" clip-rule="evenodd" d="M24.7829 10.7375C24.3078 9.53845 23.4244 8.52914 22.2386 7.78436C21.0602 7.04775 19.4234 6.67184 17.8014 6.99228C17.0001 7.14725 16.2238 7.44561 15.5425 7.84293C14.8644 8.23867 14.2567 8.71506 13.7306 9.22613C13.4679 9.48252 13.2296 9.74998 12.9927 10.019L12.3789 10.8016L11.4308 12.0614C10.2221 13.6822 8.92058 15.5818 6.78464 16.1447C4.68778 16.6972 3.77833 16.2079 2.49854 16.0057C2.73255 16.6098 3.0224 17.1966 3.41536 17.7127C3.801 18.2393 4.25651 18.7338 4.82282 19.1579C5.109 19.3615 5.41116 19.5625 5.74673 19.733C6.0808 19.8976 6.44104 20.0426 6.82556 20.1516C7.59042 20.3612 8.45153 20.4347 9.28527 20.3219C10.1194 20.2106 10.9167 19.9463 11.6136 19.5953C12.3157 19.2474 12.9272 18.8239 13.4733 18.3769C14.5589 17.4754 15.4032 16.4794 16.1165 15.4725C16.4752 14.9691 16.8009 14.4562 17.102 13.9432L17.4565 13.3324C17.5649 13.1539 17.6745 12.9742 17.7858 12.8069C18.235 12.1348 18.6743 11.5958 19.2079 11.1912C19.7341 10.7762 20.4668 10.4696 21.446 10.3984C22.421 10.3263 23.5467 10.4595 24.7829 10.7375Z" fill="#B7B7B6"/>
<path fill-rule="evenodd" clip-rule="evenodd" d="M19.5083 20.6999C19.5083 21.5806 20.2227 22.2948 21.1032 22.2948C21.984 22.2948 22.6973 21.5806 22.6973 20.6999C22.6973 19.8193 21.984 19.1049 21.1032 19.1049C20.2227 19.1049 19.5083 19.8193 19.5083 20.6999Z" fill="#F9FAF9"/>
</g>
<defs>
<clipPath id="clip0_33_138">
<rect width="28" height="28" fill="white" transform="translate(0 0.657349)"/>
</clipPath>
</defs>
</svg>
